<svg width="100" height="100" viewBox="0 0 100 100" fill="none" xmlns="http://www.w3.org/2000/svg">
  <g filter="url(#filter0_d_yam)">
    <path d="M20 50C20 35 35 20 55 20C75 20 90 35 85 55C80 75 60 85 40 85C25 85 20 70 20 50Z" fill="#FF8C42" stroke="black" stroke-width="3"/>
    <path d="M30 40C30 40 35 35 45 35" stroke="black" stroke-width="2" stroke-linecap="round"/>
    <path d="M60 30C60 30 65 25 75 25" stroke="black" stroke-width="2" stroke-linecap="round"/>
    <path d="M35 65C35 65 40 70 50 70" stroke="black" stroke-width="2" stroke-linecap="round"/>
    <circle cx="35" cy="50" r="2" fill="black" fill-opacity="0.2"/>
    <circle cx="65" cy="60" r="2" fill="black" fill-opacity="0.2"/>
    <circle cx="55" cy="40" r="2" fill="black" fill-opacity="0.2"/>
  </g>
  <defs>
    <filter id="filter0_d_yam" x="15" y="15" width="80" height="80" filterUnits="userSpaceOnUse" color-interpolation-filters="sRGB">
      <feFlood flood-opacity="0" result="BackgroundImageFix"/>
      <feColorMatrix in="SourceAlpha" type="matrix" values="0 0 0 0 0 0 0 0 0 0 0 0 0 0 0 0 0 0 127 0" result="hardAlpha"/>
      <feOffset dx="3" dy="3"/>
      <feComposite in2="hardAlpha" operator="out"/>
      <feColorMatrix type="matrix" values="0 0 0 0 0 0 0 0 0 0 0 0 0 0 0 0 0 0 1 0"/>
      <feBlend mode="normal" in2="BackgroundImageFix" result="effect1_dropShadow_yam"/>
      <feBlend mode="normal" in="SourceGraphic" in2="effect1_dropShadow_yam" result="shape"/>
    </filter>
  </defs>
</svg>
